<?xml version="1.0" standalone="no"?>
<!DOCTYPE svg PUBLIC "-//W3C//DTD SVG 20010904//EN"
 "http://www.w3.org/TR/2001/REC-SVG-20010904/DTD/svg10.dtd">
<svg version="1.0" xmlns="http://www.w3.org/2000/svg"
 width="676.000000pt" height="676.000000pt" viewBox="0 0 676.000000 676.000000"
 preserveAspectRatio="xMidYMid meet">
<metadata>
Created by potrace 1.14, written by Peter Selinger 2001-2017
</metadata>
<g transform="translate(0.000000,676.000000) scale(0.100000,-0.100000)"
fill="#000000" stroke="none">
<path d="M3307 6624 c-1 -1 -58 -4 -127 -8 -69 -3 -136 -8 -150 -11 -14 -2
-61 -9 -105 -14 -44 -6 -91 -13 -105 -16 -14 -3 -50 -10 -80 -16 -97 -18 -104
-20 -180 -41 -41 -11 -82 -21 -90 -23 -37 -9 -234 -76 -260 -90 -17 -9 -33
-16 -37 -16 -73 -10 -491 -231 -629 -334 -23 -16 -72 -52 -109 -79 -145 -105
-386 -327 -493 -454 -26 -31 -55 -66 -65 -77 -10 -11 -56 -69 -101 -130 -198
-264 -357 -564 -465 -879 -40 -116 -95 -315 -105 -377 -3 -20 -8 -42 -10 -50
-3 -8 -7 -30 -10 -49 -3 -19 -8 -44 -10 -56 -4 -18 -8 -48 -21 -154 -23 -182
-23 -651 0 -740 2 -8 6 -40 10 -71 3 -31 8 -67 11 -80 2 -13 7 -40 10 -59 29
-184 106 -447 189 -651 207 -508 549 -962 985 -1311 321 -256 704 -455 1102
-572 113 -34 270 -71 346 -82 20 -3 44 -7 52 -9 8 -3 38 -7 65 -10 28 -3 61
-8 75 -10 143 -24 622 -24 746 -1 10 2 44 7 74 10 130 15 393 70 460 96 14 6
34 12 45 14 33 7 246 83 320 115 62 27 298 145 347 173 328 189 584 402 853
708 257 292 481 687 610 1075 31 94 82 271 91 319 2 11 6 32 9 46 7 31 24 124
31 170 2 19 7 46 9 60 2 14 7 57 10 95 4 39 8 90 11 115 11 105 2 538 -11 590
-2 8 -7 40 -10 70 -10 92 -45 269 -76 388 -117 443 -319 846 -605 1207 -111
140 -378 406 -514 512 -119 94 -246 183 -259 183 -5 0 -11 4 -13 8 -1 4 -43
31 -93 60 -49 29 -97 57 -105 62 -124 73 -442 207 -590 249 -19 5 -68 19 -109
31 -71 20 -173 43 -243 55 -18 3 -40 8 -48 10 -8 2 -35 7 -60 10 -50 6 -116
16 -142 20 -43 8 -424 25 -431 19z"/>
</g>
</svg>
